<?xml version="1.0" encoding="utf-8"?>
<!-- Generator: Adobe Illustrator 24.1.2, SVG Export Plug-In . SVG Version: 6.00 Build 0)  -->
<svg version="1.1" id="Layer_1" xmlns="http://www.w3.org/2000/svg" xmlns:xlink="http://www.w3.org/1999/xlink" x="0px" y="0px"
	 viewBox="0 0 1080 268.09" style="enable-background:new 0 0 1080 268.09;" xml:space="preserve">
<style type="text/css">
	.st0{fill:#9D1B41;}
	.st1{fill:none;stroke:#9D1B41;stroke-width:2;stroke-miterlimit:10;}
</style>
<g>
	<g>
		<path class="st0" d="M513.12,105.15c-3.34,6.8-1.64,13.94-1.75,20.92c-0.11,7.29,0.64,14.58,0.57,21.87
			c-0.13,14.73-8.83,23.53-22.99,23.65c-14.72,0.13-23.38-8.37-23.82-23.4c-0.3-10.05-0.53-20.1-0.83-30.15
			c-0.06-1.97,0.29-4.23-0.55-5.84c-3.68-7.05,0.95-6.43,5.5-6.59c4.09-0.15,5.74,0.69,3.32,4.85c-0.55,0.94-0.54,2.3-0.51,3.46
			c0.28,12.02,0.35,24.06,1.03,36.06c0.51,9.17,5.47,14.74,13.06,15.99c10.88,1.78,19.54-4.19,19.32-15.13
			c-0.3-14.45,1.74-29.15-2.66-43.36c-0.61-1.96,0.26-2.64,1.89-2.67C507.4,104.76,510.14,103.97,513.12,105.15z"/>
		<path class="st0" d="M406.49,167.97c-3.66,1.11-7.19,0.28-10.65,0.45c-1.67,0.08-2.48-0.43-2.31-2.41
			c0.62-7.06-3.3-12.77-5.91-18.85c-1.01-2.37-2.87-3.58-5.6-3.54c-5.12,0.08-10.25,0-15.37,0.01c-1.4,0-3.07,0.02-3.51,1.59
			c-1.93,6.88-7.49,12.8-5.74,20.62c0.43,1.92,0.07,2.67-1.73,2.69c-2.86,0.03-5.72-0.09-8.86-0.15
			c11.24-21.99,18.86-44.78,29.69-67.98C387.92,122.94,394.55,146.27,406.49,167.97z M374.54,116.78c-1.63,4.07-2.72,6.78-3.8,9.5
			c-6.04,15.33-7.35,12.13,9.12,12.4c0.39,0.01,0.79,0,1.18-0.02c1.73-0.12,2.63-0.96,1.93-2.7
			C380.48,129.89,379.06,123.32,374.54,116.78z"/>
		<path class="st0" d="M456.56,118.29c-1.72-1.46-3.28-2.87-4.93-4.17c-12.75-10-31.39-5.27-37.52,9.68
			c-3.95,9.63-3.61,19.43,1.1,28.65c6.77,13.24,22.33,17.28,36.84,10.15c1.46-0.72,3.25-3.67,4.83-0.9
			c1.27,2.24-0.91,3.86-2.87,5.06c-10.85,6.63-27.26,5.93-37.56-1.63c-11.05-8.11-15.68-21.9-12.25-36.42
			c3.18-13.47,12.62-22.2,26.55-24.29c6.9-1.04,13.76-0.67,20.43,1.67C458.31,108.59,459.03,110.12,456.56,118.29z"/>
		<path class="st0" d="M828.27,110.59c13.23-11.35,35.44-10.31,46.33,2.18c11.53,13.23,9.98,36.51-3.2,47.82
			c-13.27,11.4-35.69,10.05-46.69-2.8C813.38,144.55,815.09,121.9,828.27,110.59z M869.21,119.26
			c-13.48-15.59-32.79-14.28-40.1-0.09c-4.94,9.59-5.07,19.68-0.49,29.38c4.53,9.59,12.23,14.96,23.23,14.8
			c9.29-0.14,15.89-5.04,19.36-13.02C876.38,138.43,875.23,126.79,869.21,119.26z"/>
		<path class="st0" d="M809.43,166.15c-2.16,0.01-4.91,0.1-7.65,0c-1.98-0.07-2.05-1.27-1.48-2.87c2.67-7.5,0.32-15.19,0.76-22.79
			c0.18-3.08-1.57-4.01-4.47-3.89c-8.43,0.35-16.87,0.59-25.31,0.76c-2.87,0.06-4.51,1.06-4.22,4.19
			c0.74,7.74-1.11,15.77,2.44,23.19c0.94,1.96,0.2,2.47-1.56,2.57c-1.76,0.09-3.54,0.06-5.29,0.27c-3.89,0.46-5.62-0.21-3.6-4.68
			c0.98-2.18,0.76-5.01,0.69-7.54c-0.38-14.13-0.88-28.26-1.36-42.39c-0.05-1.37-0.46-2.76-0.3-4.1c0.26-2.18-3.19-4.43-1.17-5.74
			c2.72-1.76,6.45-1.07,9.77-0.85c1.79,0.12,1.48,1.41,0.99,2.59c-3.28,7.83-0.55,15.92-1.03,23.87c-0.17,2.86,1.64,3.58,4.22,3.48
			c8.63-0.33,17.27-0.58,25.9-0.79c2.7-0.06,4.1-1.21,3.82-3.96c-0.83-7.92,1.32-16.15-2.5-23.74c-0.97-1.92,0.01-2.53,1.66-2.65
			c1.76-0.12,3.54,0.03,5.3-0.14c3.74-0.37,5.82-0.01,3.5,4.59c-0.98,1.93-0.66,4.61-0.6,6.94c0.38,14.13,0.85,28.26,1.31,42.39
			c0.09,2.74-0.01,5.55,1.56,7.98C811.72,164.28,811.99,165.37,809.43,166.15z"/>
		<path class="st0" d="M747.54,117.47c-6.64-7.95-14.47-12.19-24.87-11.02c-12.73,1.43-21.71,12.58-22.08,27.73
			c-0.54,22.07,18.29,34.95,38.47,26.37c1.39-0.59,3.36-2.84,4.44-0.49c1.23,2.69-1.28,4.16-3.43,5.28
			c-12.94,6.71-31.57,2.63-40.72-8.9c-10.45-13.17-9.65-33.23,1.81-45.53c10.13-10.88,31.8-13.03,44.81-4.67
			C750.9,109.4,748.11,113.38,747.54,117.47z"/>
		<path class="st0" d="M957.71,115.33c-13.46-10.62-25.56-11.36-35.52-2.53c-10.04,8.9-11.26,29.02-2.47,40.74
			c8.09,10.78,23.73,13.12,36.09,5.55c1.52-0.93,3.35-4.19,5.18-1.42c1.6,2.42-1.1,4.15-3.06,5.5c-11.19,7.76-27.18,7.71-38.92-0.11
			c-10.5-7-15.95-22.3-12.89-36.21c2.95-13.42,13.17-22.56,27.55-24.67c4.9-0.72,9.78-0.78,14.67,0.07
			C957.54,103.86,958.47,105.1,957.71,115.33z"/>
		<path class="st0" d="M997.32,111.72c-5.51-4.48-11.41-4.12-17.28-4.39c-4.3-0.2-5.44,1.57-5.26,5.48
			c0.21,4.7,0.26,9.44-0.09,14.13c-0.35,4.77,1.63,6.4,6.15,5.95c4.08-0.4,8.25,0.57,12.3-0.63c1.09-0.32,2.36-1.02,3,0.55
			c0.68,1.68,0.81,3.55,0.11,5.18c-0.65,1.53-1.95,0.48-3.04,0.28c-17.73-3.19-18.55-2.52-18.61,14.93
			c-0.03,9.83-0.03,9.85,10.07,9.86c3.72,0,7.44,0.2,10.94-1.64c1.27-0.67,3.09-3.64,4.04-1.1c0.86,2.29,0.88,6.1-2.77,7.37
			c-1.41,0.49-3.11,0.18-4.68,0.18c-7.86-0.01-15.71-0.06-23.57-0.03c-2.99,0.01-4.42-0.4-2.86-4.03c1.81-4.21,1.02-8.91,1.05-13.41
			c0.09-12.18,0.07-24.35,0.09-36.53c0-0.79-0.24-1.64-0.02-2.35c0.93-2.95-3.62-6.29-0.28-8.4c2.13-1.34,5.72-0.37,8.66-0.39
			c5.11-0.03,10.21-0.07,15.32-0.03C998.05,102.77,998.05,102.8,997.32,111.72z"/>
		<path class="st0" d="M900.77,104.41c-4.18,7.42-2.27,15.36-2.5,23.04c-0.32,10.58-0.04,21.17,0,31.76
			c0.01,1.37-0.26,2.97,0.33,4.06c3.07,5.61,0.12,5.73-4.46,5.84c-5.07,0.12-5.65-0.41-4.5-5.97c1.67-8.11,1.21-16.78,0.8-25.16
			c-0.51-10.68,2.1-21.55-1.73-32.04c-0.67-1.83,0.71-2.08,1.87-1.98C893.84,104.23,897.18,103.23,900.77,104.41z"/>
		<path class="st0" d="M581.89,153.91c3.13,3.64,5.61,7.57,9.91,9.49c5.03,2.24,10.09,2.96,14.96-0.18
			c3.82-2.46,5.7-6.05,5.43-10.72c-0.26-4.41-2.47-7.67-6.06-9.85c-4.62-2.81-9.52-5.18-14.19-7.91
			c-9.05-5.3-12.57-13.33-9.65-21.63c2.92-8.32,12.26-13.15,22.17-11.46c11.07,1.88,13.07,4.13,11.49,13.05
			c-2.31,0.3-2.8-1.89-3.99-3.01c-3.67-3.48-7.96-5.46-13.03-5.29c-4.91,0.16-8.3,2.64-9.97,7.34c-1.7,4.78-0.38,8.68,3.48,11.79
			c4.91,3.94,10.92,5.91,16.25,9.13c9.37,5.66,12.89,13.19,10.21,22.05c-2.64,8.74-10.77,14-21.13,13.4
			c-2.77-0.16-5.59-0.72-8.24-1.55C580.75,165.81,579.89,164.13,581.89,153.91z"/>
		<path class="st0" d="M673.2,110.13c-5.03-2.86-10.03-3.35-15.38-2.72c-3.02,0.35-4.35,1.5-4.22,4.51
			c0.7,16.45,1.36,32.91,2.03,49.36c0.02,0.4,0.12,0.81,0.09,1.2c-0.18,2.18,3.27,4.62,1.18,5.88c-2.31,1.39-5.78,0.94-8.75,1.13
			c-1.35,0.09-2.3-0.54-2.02-2.2c2.77-16.2-0.37-32.37-0.35-48.56c0-3.41,1.68-8.64-1.49-10.09c-4.16-1.89-9.4-0.88-13.99,1.11
			c-1.38,0.6-2.37,2.78-4.13,1.68c-1.36-0.85-0.63-2.57-0.48-3.92c0.25-2.21,1.28-3.94,3.7-4.03c13.24-0.52,26.49-1.14,39.74-1.34
			C674.56,102.06,672.44,106.94,673.2,110.13z"/>
		<path class="st0" d="M541.77,110.57c0.8-0.91,1.11-1.49,1.59-1.78c12.61-7.71,13.33-7.4,13.52,7.03
			c0.18,14.05,0.05,28.1,0.1,42.15c0.01,2,0.33,4,0.32,6c-0.02,2.09,3.34,4.61,0.95,5.76c-2.65,1.27-6.26,0.62-9.45,0.63
			c-1.2,0-1.8-0.96-1.14-2.09c3.74-6.37,1.83-13.35,2.08-20.05c0.34-9.02,0.01-18.06,0.03-27.09
			C549.78,112.55,549.82,112.55,541.77,110.57z"/>
	</g>
	<g>
		<path class="st0" d="M209.87,17.77c65.69-0.63,119.55,53.9,119.52,119.4c-0.03,65.47-53.98,119.63-119.92,119.42
			c-63.58-0.2-119.19-51.5-119.08-119.68C90.51,68.85,146.18,17.13,209.87,17.77z M94.59,136.94
			c-0.54,63.02,51.08,115.47,114.88,115.55c63.93,0.08,115.83-51.38,115.88-114.94c0.05-64.06-51.43-115.7-115.26-115.84
			C145.97,21.57,94.22,74.02,94.59,136.94z"/>
		<path class="st0" d="M99.31,137.16c-0.63-60.78,49.88-110.94,110.7-110.88c58.92,0.07,110.38,47.87,110.56,110.63
			c0.17,61.26-49.72,110.98-111.26,110.72C146.56,247.37,98.79,195.59,99.31,137.16z M149.64,112.3c0.25,0.03,0.49,0.07,0.74,0.1
			c0.31,0.83,0.65,1.65,0.94,2.49c5.79,16.66,11.59,33.31,17.37,49.98c0.51,1.48,0.91,2.87,3.01,2.83c5.25-0.1,10.5-0.06,15.74-0.02
			c1.92,0.02,2.08-0.78,1.46-2.36c-9.25-23.77-18.49-47.54-27.69-71.33c-0.58-1.49-1.45-2.09-3.05-2.07
			c-5.07,0.06-10.13,0.08-15.2-0.01c-1.77-0.03-2.57,0.76-3.15,2.3c-1.65,4.4-3.42,8.76-5.14,13.14
			c-7.55,19.19-15.07,38.39-22.67,57.56c-0.84,2.12-0.65,2.88,1.82,2.8c4.34-0.14,8.69-0.19,13.02,0.02
			c2.62,0.13,3.83-0.79,4.67-3.28c5.42-15.93,10.99-31.8,16.52-47.69C148.57,115.27,149.11,113.79,149.64,112.3z M298.26,156.65
			c0-1.81-0.12-3.63,0.03-5.42c0.2-2.29-0.18-3.11-2.7-2.04c-3.65,1.56-7.48,2.68-11.44,3.31c-9.94,1.58-16.92-1.59-19.79-9.63
			c-3.13-8.74-2.99-17.61,0.66-26.22c2.67-6.31,7.55-9,14.44-8.85c5.02,0.11,9.58,1.74,14.08,3.65c1.48,0.63,2.28,0.47,2.86-1.14
			c1.39-3.82,2.84-7.63,4.41-11.38c0.78-1.87,0.26-2.75-1.57-3.45c-8.85-3.39-17.9-5.01-27.37-3.62
			c-12.29,1.8-21.49,7.96-26.39,19.52c-5.07,11.98-4.95,24.35-1.06,36.62c3.32,10.48,10.61,17.11,21.28,19.69
			c9.7,2.35,19.35,1.65,28.91-1.22c2.77-0.83,4.11-2.23,3.7-5.22C298.09,159.75,298.26,158.19,298.26,156.65z M224.97,130.35
			c0-12.03-0.02-24.06,0.03-36.09c0.01-1.61-0.2-2.52-2.15-2.51c-9.68,0.07-19.36,0.05-29.04,0.02c-1.52,0-2.38,0.47-2.36,2.17
			c0.05,3.62,0.04,7.24,0,10.85c-0.02,1.49,0.62,2.14,2.11,2.12c2.53-0.04,5.07,0,7.6,0c4.8,0,4.8,0,4.8,4.68c0,18,0.04,36-0.04,54
			c-0.01,2.49,0.79,3.35,3.27,3.26c4.34-0.16,8.68-0.12,13.02-0.01c2.01,0.05,2.83-0.39,2.8-2.68
			C224.9,154.24,224.97,142.29,224.97,130.35z"/>
	</g>
	<line class="st1" x1="998.47" y1="182.18" x2="308.94" y2="182.18"/>
	<line class="st1" x1="1000.8" y1="95.58" x2="319" y2="95.58"/>
	<line class="st1" x1="989.72" y1="191.45" x2="300.19" y2="191.45"/>
	<line class="st1" x1="999.15" y1="84.53" x2="309.62" y2="84.53"/>
</g>
</svg>
